# xmcd
#
# Track frame offsets:
#	150
#	23775
#	35990
#	51552
#	71375
#	86262
#	103875
#	121550
#	133492
#	148060
#	167907
#	182760
#	204022
#	223020
#	246337
#	265427
#	284685
#
# Disc length: 3992 seconds
#
# Revision: 0
# Processed by: cddbd v1.4PL0 Copyright (c) Steve Scherf et al.
# Submitted via: audiograbber 1.81.02
#
DISCID=0f0f9611
DTITLE=Aaron Moore - Boot 'em Up!
DYEAR=1900
DGENRE=Blues
TTITLE0=I Want My Baby Back
TTITLE1=You Look So Good To Me
TTITLE2=Boot 'Em Up!
TTITLE3=I Thought Your Love Was True
TTITLE4=Bedroom Invitation
TTITLE5=Just Let Me Love You
TTITLE6=My Love Is Out Of Control
TTITLE7=I Can't Stand To Be Alone
TTITLE8=Hind Part Boogie
TTITLE9=Made a Change In Your Love
TTITLE10=Real Throw Down
TTITLE11=Wading In Deep Water
TTITLE12=You Came To Me In A Dream
TTITLE13=Lonely Mood
TTITLE14=Waiting On Your Love
TTITLE15=Confusing World
TTITLE16=Faithful Love
EXTD=
EXTT0=
EXTT1=
EXTT2=
EXTT3=
EXTT4=
EXTT5=
EXTT6=
EXTT7=
EXTT8=
EXTT9=
EXTT10=
EXTT11=
EXTT12=
EXTT13=
EXTT14=
EXTT15=
EXTT16=
PLAYORDER=
